<svg width="8" height="11" viewBox="0 0 8 11" fill="none" xmlns="http://www.w3.org/2000/svg">
<path d="M6.92969 5.89844C7.07031 5.78125 7.11719 5.64062 7.11719 5.5C7.11719 5.33594 7.07031 5.19531 6.92969 5.10156L2.38281 0.554687C2.28906 0.4375 2.14844 0.390624 1.98438 0.390624C1.84375 0.390624 1.70313 0.437499 1.58594 0.554687L1.07031 1.07031C0.976564 1.16406 0.906251 1.30469 0.906251 1.46875C0.906251 1.60937 0.953126 1.75 1.04688 1.86719L4.67969 5.5L1.04688 9.13281C0.953125 9.22656 0.90625 9.36719 0.90625 9.53125C0.90625 9.67187 0.976563 9.8125 1.07031 9.92969L1.58594 10.4453C1.70313 10.5391 1.84375 10.6094 1.98438 10.6094C2.14844 10.6094 2.28906 10.5391 2.38281 10.4453L6.92969 5.89844Z" fill="black"/>
</svg>
