<svg width="9" height="6" viewBox="0 0 9 6" fill="none" xmlns="http://www.w3.org/2000/svg">
<path d="M1.69602 0.691877C1.52585 0.4744 1.2116 0.436052 0.994123 0.606223C0.776646 0.776395 0.738298 1.09065 0.908469 1.30812L1.69602 0.691877ZM4.50331 5.09091L4.10953 5.39903L4.51233 5.91381L4.90375 5.39032L4.50331 5.09091ZM7.96254 1.29941C8.1279 1.07825 8.08267 0.76492 7.86151 0.599559C7.64035 0.434199 7.32702 0.479431 7.16166 0.700589L7.96254 1.29941ZM0.908469 1.30812L4.10953 5.39903L4.89708 4.78279L1.69602 0.691877L0.908469 1.30812ZM4.90375 5.39032L7.96254 1.29941L7.16166 0.700589L4.10287 4.7915L4.90375 5.39032Z" fill="black"/>
</svg>
