<svg width="27" height="21" viewBox="0 0 27 21" fill="none" xmlns="http://www.w3.org/2000/svg">
<path d="M10.1343 18.4422C10.1343 19.3767 9.37672 20.1343 8.44217 20.1343C7.50761 20.1343 6.75 19.3767 6.75 18.4422C6.75 17.5076 7.50761 16.75 8.44217 16.75C9.37672 16.75 10.1343 17.5076 10.1343 18.4422Z" fill="black" stroke="black" stroke-width="1.5"/>
<path d="M17.1343 18.4422C17.1343 19.3767 16.3767 20.1343 15.4422 20.1343C14.5076 20.1343 13.75 19.3767 13.75 18.4422C13.75 17.5076 14.5076 16.75 15.4422 16.75C16.3767 16.75 17.1343 17.5076 17.1343 18.4422Z" fill="black" stroke="black" stroke-width="1.5"/>
<path d="M21.4759 11.3398H24.5655" stroke="black" stroke-width="1.2" stroke-linecap="round"/>
<path d="M23.6828 1H20.7034L16.8966 13.7507H6.08276L2 4.48234H14.9655" stroke="black" stroke-width="2" stroke-linecap="round"/>
<path d="M21.9172 9.03613H26" stroke="black" stroke-width="1.2" stroke-linecap="round"/>
<path d="M22.5793 6.94678H25.2276" stroke="black" stroke-width="1.2" stroke-linecap="round"/>
</svg>
