<svg width="18" height="18" viewBox="0 0 18 18" fill="none" xmlns="http://www.w3.org/2000/svg">
<path fill-rule="evenodd" clip-rule="evenodd" d="M11.5154 8.93084L17.5154 2.88469C17.7923 2.60777 17.7923 2.19238 17.5154 1.91546L16.5923 0.946229C16.3154 0.669306 15.9 0.669306 15.6231 0.946229L9.57694 6.99238C9.39232 7.177 9.1154 7.177 8.93078 6.99238L2.88463 0.900075C2.60771 0.623152 2.19232 0.623152 1.9154 0.900075L0.946168 1.86931C0.669245 2.14623 0.669245 2.56161 0.946168 2.83854L6.99232 8.88469C7.17694 9.06931 7.17694 9.34623 6.99232 9.53084L0.900014 15.6232C0.623091 15.9001 0.623091 16.3155 0.900014 16.5924L1.86924 17.5616C2.14617 17.8385 2.56155 17.8385 2.83848 17.5616L8.88463 11.5155C9.06924 11.3308 9.34617 11.3308 9.53078 11.5155L15.5769 17.5616C15.8539 17.8385 16.2692 17.8385 16.5462 17.5616L17.5154 16.5924C17.7923 16.3155 17.7923 15.9001 17.5154 15.6232L11.5154 9.577C11.3308 9.39238 11.3308 9.11546 11.5154 8.93084Z" fill="white"/>
</svg>
