<svg width="47" height="68" viewBox="0 0 47 68" fill="none" xmlns="http://www.w3.org/2000/svg">
<path d="M16.0268 27.3461C16.2305 26.9746 16.4305 26.5901 16.6487 26.2162C17.261 25.1676 18.0236 24.2264 18.8917 23.3725C19.6543 22.6223 20.5296 21.996 21.4644 21.4617C21.8972 21.214 22.3701 21.0277 22.832 20.8319C23.3291 20.6219 23.8201 20.6786 24.3148 20.8802C25.2726 21.2718 26.1588 21.7861 26.9748 22.4006C27.7374 22.975 28.4418 23.6237 29.0213 24.3809C29.5051 25.0131 29.9718 25.6595 30.418 26.3176C30.635 26.6372 30.7878 26.9993 30.9587 27.3213C31.5334 27.0371 32.0984 26.7387 32.6816 26.4768C33.0562 26.3082 33.4526 26.1796 33.8479 26.0593C35.0385 25.6996 36.2594 25.545 37.5033 25.6087C37.964 25.6323 38.4247 25.7172 38.8781 25.8033C39.4213 25.9071 39.9608 26.031 40.4955 26.1678C40.7392 26.2303 40.9817 26.32 41.2023 26.4367C41.9552 26.833 42.7299 27.2034 43.4392 27.6657C44.6019 28.423 45.5658 29.3972 46.3926 30.4941C46.5902 30.7571 46.8679 31.0213 46.92 31.3162C47.0085 31.8151 47.0425 32.3612 46.92 32.8448C46.8121 33.2729 46.4508 33.6386 45.9816 33.812C45.7949 33.8804 45.59 33.924 45.39 33.9382C44.8468 33.9783 44.2879 33.9323 43.7605 34.0408C43.181 34.1599 42.6317 34.4076 42.1601 34.7921C41.5042 35.3276 41.0059 35.9692 40.7113 36.7512C40.4906 37.3397 40.3427 37.9401 40.3451 38.577C40.3561 40.8345 40.367 43.0932 40.3391 45.3507C40.3294 46.1197 40.2239 46.8887 40.1257 47.6542C40.053 48.2204 39.9657 48.7912 39.8081 49.3385C39.6226 49.9872 39.3728 50.6206 39.1158 51.2469C38.9169 51.7305 38.7011 52.2129 38.4259 52.6575C38.0586 53.252 37.6536 53.8299 37.2159 54.3784C36.4133 55.3868 35.4664 56.2573 34.3644 56.9484C33.6478 57.3978 32.9107 57.8236 32.079 58.0583C31.6328 58.1845 31.1721 58.2753 30.7478 58.4487C30.4132 58.5855 30.0858 58.5537 29.7548 58.5537C25.4872 58.5584 21.2195 58.5608 16.9518 58.549C16.6063 58.5478 16.2547 58.4711 15.9189 58.3815C15.4897 58.2659 15.0666 58.1196 14.6556 57.9545C14.1924 57.7682 13.7305 57.57 13.2928 57.3353C12.5799 56.9531 11.924 56.4873 11.3154 55.9577C10.5661 55.3042 9.88839 54.5907 9.32705 53.778C9.01667 53.3286 8.69417 52.8793 8.44805 52.3957C8.10494 51.721 7.82245 51.0169 7.52541 50.321C7.40296 50.0332 7.29263 49.7395 7.20292 49.4411C7.11441 49.1486 7.05137 48.849 6.99196 48.5506C6.91921 48.1838 6.84526 47.8158 6.80282 47.4454C6.73735 46.8781 6.65976 46.3073 6.65612 45.7376C6.64036 43.3102 6.64885 40.8841 6.65006 38.4567C6.65006 37.9625 6.55307 37.4895 6.35423 37.0331C6.23178 36.7535 6.1554 36.4528 6.01355 36.1827C5.57708 35.3535 4.92845 34.719 4.06158 34.3156C3.3499 33.9853 2.58002 33.9334 1.8053 33.9417C1.35429 33.9464 0.93237 33.8745 0.596534 33.5513C0.286159 33.2529 -0.0157291 32.9462 0.0315546 32.4685C0.0376166 32.4096 0.0412538 32.3482 0.0315546 32.2916C-0.111509 31.499 0.255849 30.8916 0.742023 30.3018C1.47916 29.4078 2.28541 28.5869 3.22624 27.8945C3.97671 27.3426 4.76477 26.8507 5.64983 26.5228C6.1651 26.3318 6.66946 26.1018 7.19928 25.9649C7.74971 25.8222 8.32318 25.7503 8.89058 25.6854C9.39615 25.6288 9.909 25.5863 10.417 25.6076C10.9468 25.6288 11.4766 25.7137 11.9992 25.8081C12.5302 25.9024 13.0661 26.005 13.5777 26.1713C14.0906 26.3388 14.5816 26.5771 15.0702 26.8071C15.3975 26.9687 15.7043 27.1645 16.0268 27.3461ZM2.41029 31.6913C2.42969 31.7172 2.44787 31.7432 2.46727 31.7703C2.64671 31.7998 2.82493 31.8434 3.00437 31.8564C3.91973 31.9177 4.79024 32.1548 5.55405 32.6337C6.90103 33.477 7.90368 34.6187 8.42138 36.119C8.70387 36.9375 8.88331 37.7738 8.87967 38.6466C8.86997 40.8876 8.85421 43.1286 8.88815 45.3684C8.90149 46.2153 9.00455 47.0668 9.14034 47.9054C9.33674 49.1215 9.81079 50.2561 10.3964 51.3401C11.0705 52.5915 11.9652 53.6813 13.0891 54.5789C13.8833 55.2122 14.7598 55.7241 15.737 56.0461C16.1674 56.1877 16.6184 56.3681 17.061 56.3705C21.3541 56.3953 25.6472 56.3858 29.9403 56.3835C30.0519 56.3835 30.1646 56.3693 30.2737 56.3457C31.177 56.1499 32.0002 55.7749 32.7992 55.3243C33.8418 54.7357 34.7099 53.9585 35.4531 53.0526C36.2557 52.0737 36.8425 50.9732 37.3081 49.8008C37.8634 48.4032 38.0889 46.9512 38.1155 45.4722C38.1543 43.3421 38.1192 41.2108 38.1301 39.0795C38.1325 38.5499 38.1277 38.0085 38.2344 37.4931C38.3774 36.8043 38.5714 36.1131 38.849 35.4656C39.0515 34.9926 39.3995 34.5703 39.7256 34.1587C40.8156 32.7823 42.2317 31.9673 44.0418 31.8552C44.2127 31.8446 44.3812 31.7998 44.6128 31.7597C44.3024 31.4129 44.0321 31.0968 43.7459 30.796C42.9797 29.9928 42.1092 29.3252 41.1029 28.8181C40.1099 28.318 39.0915 27.9606 37.9628 27.8356C37.1129 27.7412 36.2824 27.7801 35.4543 27.8898C34.619 28.0007 33.8442 28.3368 33.0853 28.6872C32.5045 28.9549 31.9978 29.3618 31.3285 29.4703C30.8169 29.5529 30.3525 29.4349 29.9233 29.2415C29.3741 28.9938 29.0092 28.5374 28.774 27.9865C28.6685 27.7389 28.5339 27.5018 28.3981 27.2682C27.8998 26.412 27.2561 25.6712 26.5553 24.9636C25.7066 24.1049 24.7318 23.4432 23.614 22.9714C23.5522 22.9455 23.454 22.9396 23.3982 22.9691C22.8453 23.2616 22.2719 23.5281 21.7542 23.8726C20.9237 24.4257 20.2265 25.1322 19.5852 25.8847C18.979 26.5948 18.5207 27.3968 18.1 28.2224C17.9557 28.5067 17.7035 28.7461 17.4744 28.9808C17.181 29.2828 16.7712 29.3488 16.376 29.455C15.857 29.593 15.3878 29.429 14.9429 29.2498C14.4034 29.0339 13.9075 28.7166 13.385 28.4583C12.449 27.9948 11.4366 27.8191 10.4024 27.7778C9.9381 27.7589 9.47132 27.845 9.00455 27.8556C8.30741 27.8721 7.65635 28.0679 7.01742 28.3097C5.83775 28.7567 4.75629 29.3712 3.84335 30.2334C3.34626 30.7029 2.88555 31.2053 2.41029 31.6913Z" fill="white"/>
<path d="M31.5965 12.0034C31.5965 16.7012 31.5965 21.3802 31.5965 26.1229C31.4813 25.9943 31.3722 25.8999 31.297 25.7844C31.023 25.3645 30.7757 24.9292 30.492 24.5164C30.0216 23.8323 29.5427 23.1541 29.0468 22.4889C28.4891 21.7411 27.8671 21.0417 27.1057 20.485C26.5517 20.0793 25.9843 19.6499 25.355 19.3893C24.3318 18.9658 23.2612 18.9128 22.1761 19.3067C21.2219 19.6535 20.3987 20.1866 19.6713 20.8506C18.939 21.5194 18.2479 22.2353 17.6854 23.0574C17.124 23.8783 16.5457 24.6898 15.9662 25.5001C15.8122 25.7148 15.6231 25.9058 15.4242 26.1382C15.4242 23.8606 15.4242 21.648 15.4242 19.4341C15.4242 17.9468 15.4254 16.4583 15.417 14.971C15.4157 14.7799 15.4558 14.6985 15.674 14.6619C18.5838 14.1843 21.4911 13.6936 24.3984 13.2065C25.7236 12.9847 27.05 12.7642 28.3751 12.5424C29.4335 12.3655 30.4908 12.1886 31.5965 12.0034ZM17.6757 19.657C17.8963 19.4647 18.0855 19.2949 18.2794 19.131C19.1609 18.3903 20.0823 17.7085 21.205 17.3464C22.3895 16.9643 23.5692 16.6977 24.8446 17.002C25.9564 17.2674 26.9918 17.6377 27.895 18.3301C28.3678 18.6934 28.8504 19.046 29.3269 19.4022C29.3269 17.8064 29.3269 16.1964 29.3269 14.5664C25.435 15.2175 21.5578 15.8674 17.6757 16.5161C17.6757 17.5611 17.6757 18.5825 17.6757 19.657Z" fill="white"/>
<path d="M13.6177 67.3995C13.3607 67.751 12.9885 67.8477 12.5714 67.8465C12.1895 67.8453 11.8064 67.8477 11.4245 67.8453C10.5637 67.8418 10.2303 67.2945 10.3321 66.5396C10.4073 65.9747 10.4546 65.4073 10.5152 64.8388C9.44948 64.8495 8.71112 64.2314 8.64808 63.1593C8.58382 62.0753 9.20093 61.3417 10.1139 60.8298C11.0535 60.3026 12.0828 60.1009 13.1643 60.1339C13.6068 60.1469 13.956 60.3109 14.253 60.6494C14.4846 60.2802 14.8532 60.1835 15.2617 60.187C15.7552 60.1905 16.2511 60.187 16.7433 60.2283C17.1834 60.2649 17.4416 60.5326 17.518 60.9607C17.5241 60.9914 17.5447 61.0209 17.5714 61.0787C17.6005 61.0233 17.6211 60.9926 17.6332 60.9584C17.7823 60.5267 18.0806 60.2306 18.5498 60.2094C19.1451 60.1823 19.7452 60.2012 20.3405 60.2389C20.7297 60.2637 20.9649 60.5267 21.0534 60.8829C21.1722 61.357 21.2631 61.8394 21.3662 62.3171C21.3747 62.3561 21.3892 62.3938 21.4498 62.4374C21.5408 62.0529 21.6329 61.6684 21.7226 61.2839C21.7445 61.1931 21.7602 61.1023 21.782 61.0115C21.8815 60.5869 22.1167 60.266 22.5859 60.2318C23.1375 60.1929 23.6988 60.1599 24.2456 60.2177C24.8446 60.2802 25.064 60.5857 25.1707 61.2674C25.1816 61.3394 25.1913 61.4113 25.2544 61.4939C25.3283 61.3323 25.4071 61.1719 25.4738 61.0079C25.709 60.4229 26.0594 60.1858 26.702 60.1846C27.0839 60.1846 27.467 60.1823 27.8489 60.1858C28.2066 60.1894 28.5375 60.266 28.7788 60.5479C29.545 60.1457 30.3549 59.9653 31.2 60.0431C31.7031 60.0903 32.2087 60.2071 32.69 60.3616C33.1762 60.5173 33.392 60.9643 33.318 61.4514C33.2926 61.6248 33.2889 61.8005 33.2999 61.9857C33.4259 61.6578 33.5581 61.3311 33.6781 61.0008C33.8794 60.4441 34.2419 60.1823 34.8505 60.1858C35.3452 60.1882 35.8411 60.1835 36.3321 60.2212C36.8267 60.259 37.0692 60.5857 37.1638 61.0327C37.302 61.6849 37.4402 62.3372 37.5736 62.9906C37.8221 64.2055 38.0597 65.4227 38.3156 66.6364C38.4526 67.2862 38.0961 67.7946 37.4669 67.8241C36.794 67.8559 36.1151 67.8253 35.441 67.784C35.1124 67.7639 34.9075 67.5304 34.7923 67.2308C34.7717 67.1766 34.7196 67.1341 34.6832 67.0869C34.6299 67.1294 34.5523 67.1612 34.528 67.2167C34.3413 67.6425 33.9849 67.8394 33.5411 67.8382C32.9834 67.8382 32.4112 67.9444 31.8704 67.6967C31.8147 67.6708 31.7237 67.7215 31.6486 67.7345C31.1309 67.8229 30.6156 67.9409 30.0931 67.9904C29.5426 68.0423 29.0116 67.8949 28.4866 67.7356C28.3775 67.7026 28.2454 67.7286 28.1277 67.7451C28.0089 67.7628 27.8925 67.8288 27.7749 67.8288C27.1772 67.8265 26.5771 67.8418 25.9842 67.7828C25.7357 67.758 25.5126 67.7604 25.2677 67.7958C24.6663 67.8807 24.0601 67.9114 23.4636 67.7403C23.4188 67.7274 23.3691 67.7156 23.3242 67.7215C22.9738 67.7604 22.6247 67.8335 22.2743 67.8406C21.4668 67.8583 20.6581 67.8489 19.8495 67.8453C19.3306 67.843 18.8795 67.7274 18.7098 67.1659C18.7001 67.1317 18.6395 67.0928 18.6031 67.0916C18.5631 67.0916 18.5001 67.1258 18.4867 67.16C18.2564 67.7451 17.7666 67.8536 17.2004 67.8477C16.3602 67.8394 15.52 67.8453 14.6798 67.8453C14.1548 67.8453 13.962 67.7651 13.6177 67.3995ZM21.388 66.8758C21.371 66.8746 21.3553 66.8734 21.3383 66.8723C20.9455 64.9474 20.5514 63.0225 20.1586 61.0976C19.6664 61.0976 19.2142 61.0893 18.7632 61.1046C18.6783 61.1082 18.5498 61.1884 18.5207 61.2627C18.1206 62.2711 17.735 63.2867 17.3434 64.2975C17.0052 65.1691 16.6621 66.0395 16.3129 66.9312C16.6269 66.9312 16.913 66.9147 17.1979 66.9359C17.4671 66.956 17.6332 66.8982 17.6768 66.6045C17.6987 66.4559 17.792 66.3179 17.849 66.1823C18.3958 66.1823 18.9329 66.1823 19.4724 66.1823C19.5209 66.4359 19.5658 66.6776 19.6118 66.9206C20.7006 66.9206 21.776 66.9206 22.8611 66.9206C23.0466 65.9735 23.2296 65.0335 23.4273 64.0262C23.477 64.3246 23.5206 64.5522 23.5521 64.7811C23.6431 65.4392 23.7231 66.0997 23.8237 66.7567C23.8334 66.8227 23.9474 66.9183 24.0189 66.9218C24.3305 66.9395 24.6445 66.9418 24.9561 66.9218C25.0422 66.9159 25.1658 66.8357 25.1974 66.7602C25.4423 66.1799 25.6678 65.5913 25.9018 65.0075C26.0412 64.6607 26.1867 64.3163 26.3298 63.9708C26.3407 63.9755 26.3516 63.979 26.3625 63.9837C26.291 64.9615 26.2206 65.9393 26.1491 66.9171C26.7032 66.9171 27.2039 66.9171 27.7252 66.9171C27.7774 66.1221 27.8356 65.3389 27.8792 64.5558C27.9083 64.0439 27.9156 63.5308 27.9338 63.0189C27.935 62.9776 27.9447 62.9364 27.9483 62.8951C27.9847 62.3042 28.0198 61.7132 28.0574 61.0976C27.5349 61.0976 27.0596 61.0917 26.5844 61.1046C26.5165 61.107 26.4243 61.1943 26.3916 61.2639C26.1346 61.8218 25.8884 62.3855 25.6399 62.947C25.378 63.5379 25.1149 64.1288 24.8531 64.7197C24.8337 64.7197 24.8155 64.7185 24.7961 64.7185C24.59 63.5131 24.3851 62.3065 24.179 61.0964C23.7255 61.0964 23.3085 61.1035 22.8926 61.0928C22.7289 61.0893 22.6938 61.1695 22.6659 61.2992C22.558 61.8088 22.4416 62.3171 22.3264 62.8255C22.1458 63.624 21.9639 64.4225 21.7796 65.221C21.6511 65.773 21.5189 66.3238 21.388 66.8758ZM11.239 66.9312C11.7482 66.9312 12.2247 66.9359 12.6999 66.9241C12.7545 66.923 12.8418 66.8357 12.8539 66.7755C12.8903 66.6057 12.8963 66.4288 12.9133 66.2542C12.9715 65.6586 13.0297 65.0618 13.0879 64.4591C13.6214 64.4591 14.1463 64.4591 14.6895 64.4591C14.6022 65.2882 14.5173 66.1009 14.43 66.9301C14.8944 66.9301 15.3272 66.9194 15.76 66.9348C15.9819 66.9418 16.0352 66.851 16.0462 66.6564C16.0692 66.2401 16.108 65.8237 16.1516 65.4085C16.2147 64.8046 16.2862 64.2008 16.3553 63.598C16.4038 63.177 16.456 62.7559 16.4996 62.3336C16.542 61.9303 16.576 61.5257 16.616 61.1082C16.085 61.1082 15.577 61.1082 15.0399 61.1082C14.9659 61.8501 14.8932 62.5849 14.8204 63.3161C14.2858 63.3161 13.7668 63.3161 13.2237 63.3161C13.2989 62.5766 13.3728 61.8512 13.4468 61.127C13.3486 61.094 13.2782 61.0681 13.2055 61.048C13.1728 61.0398 13.1364 61.0457 13.1012 61.0445C12.1931 61.0185 11.3311 61.1907 10.5467 61.6472C9.9793 61.9774 9.53192 62.4186 9.58284 63.1227C9.63255 63.8009 10.2012 64.0981 10.788 63.7785C11.0014 63.6617 11.1141 63.4589 11.1371 63.2241C11.165 62.9328 11.0401 62.7016 10.7686 62.5365C11.0644 62.303 11.3566 62.1331 11.7433 62.1697C11.576 63.7537 11.4099 65.3236 11.239 66.9312ZM28.3496 65.037C28.3278 65.1679 28.3096 65.2552 28.2999 65.3448C28.2635 65.6763 28.2308 66.0065 28.1969 66.338C28.1823 66.4771 28.1859 66.6033 28.3569 66.6635C28.483 66.7083 28.5982 66.7838 28.7218 66.8333C29.3814 67.0964 30.0676 67.1589 30.7611 67.0279C31.3176 66.923 31.8256 66.7189 32.2026 66.2613C32.7203 65.6326 32.7482 64.4083 32.0523 63.8764C31.6061 63.5367 31.0957 63.2772 30.6168 62.9788C30.4883 62.8986 30.3343 62.8255 30.2567 62.7087C30.1779 62.5896 30.1173 62.3997 30.1609 62.2794C30.1973 62.178 30.3986 62.0683 30.5198 62.0742C30.7853 62.0883 31.063 62.1402 31.3079 62.2393C31.634 62.3714 31.9335 62.5636 32.2439 62.7299C32.2924 62.2381 32.3408 61.7439 32.3954 61.1848C32.0511 61.12 31.7068 61.0409 31.3588 60.9926C30.418 60.8628 29.5438 60.9914 28.8576 61.7003C28.2866 62.29 28.3448 63.1605 28.8528 63.7431C29.2007 64.1418 29.6857 64.3458 30.1343 64.6006C30.4095 64.7563 30.7138 64.9084 30.7938 65.2304C30.9126 65.7105 30.3925 66.095 29.8651 65.9464C29.2929 65.7836 28.8212 65.4651 28.3496 65.037ZM36.223 61.0976C35.761 61.0976 35.327 61.1082 34.8942 61.0928C34.6929 61.0858 34.6165 61.1613 34.5498 61.3405C34.1401 62.4245 33.7121 63.5025 33.2914 64.5817C32.9883 65.359 32.6876 66.1374 32.3784 66.9324C32.7009 66.9324 32.9968 66.9159 33.2902 66.9371C33.546 66.956 33.6878 66.8923 33.7315 66.6257C33.7569 66.4701 33.8515 66.3238 33.9109 66.1834C34.4601 66.1834 34.9972 66.1834 35.5331 66.1834C35.5816 66.437 35.6265 66.6788 35.6725 66.923C36.2569 66.923 36.8279 66.923 37.4087 66.923C37.0134 64.9768 36.6182 63.0413 36.223 61.0976Z" fill="white"/>
<path d="M32.2742 4.5752C32.7325 4.62827 33.1071 4.6613 33.4793 4.71909C33.8818 4.78042 34.2916 4.83232 34.6796 4.94673C35.2045 5.10242 35.7356 5.27226 36.2218 5.51405C36.8158 5.80892 37.4014 6.14507 37.93 6.53783C38.5411 6.99193 39.0406 7.56161 39.431 8.22094C39.671 8.62668 39.8323 9.05246 39.996 9.49005C40.2542 10.1789 40.2409 10.8795 40.2397 11.586C40.2348 15.7967 40.2275 20.0074 40.2215 24.2169C40.2215 24.316 40.2215 24.4151 40.2215 24.5507C39.7062 24.513 39.2249 24.4729 38.7423 24.4446C38.1313 24.4092 37.5202 24.2971 36.9104 24.4634C36.8461 24.4811 36.7722 24.467 36.7031 24.4634C36.0969 24.4328 35.5064 24.5413 34.9172 24.6616C34.7099 24.704 34.4965 24.7194 34.288 24.7583C33.9036 24.8302 33.5205 24.9116 33.1362 24.9871C32.8137 25.0508 32.7325 24.9859 32.7325 24.6651C32.7325 18.7383 32.7397 12.8114 32.7179 6.8846C32.7167 6.45999 32.6827 6.01179 32.5033 5.58954C32.3809 5.30057 32.359 4.9715 32.2742 4.5752ZM37.9858 22.1646C37.9858 22.075 37.9858 21.9747 37.9858 21.8745C37.9894 18.2806 37.9882 14.6868 38.0016 11.0929C38.004 10.4619 37.8039 9.89815 37.4996 9.36856C37.0704 8.62196 36.4279 8.07468 35.6665 7.65833C35.4531 7.54156 35.2227 7.45428 34.99 7.34813C34.99 12.3856 34.99 17.3878 34.99 22.3887C35.9878 22.3144 36.9698 22.2413 37.9858 22.1646Z" fill="white"/>
<path d="M14.6216 4.67054C14.5731 4.8333 14.5258 4.99607 14.4761 5.15884C14.4713 5.17417 14.4519 5.18596 14.4483 5.2013C14.3876 5.5056 14.2979 5.80872 14.2737 6.11657C14.03 9.21857 14.2033 12.3265 14.1718 15.4308C14.1403 18.534 14.1646 21.6372 14.1646 24.7416C14.1646 24.9928 13.9851 25.0671 13.6966 24.9846C13.3716 24.8914 13.0358 24.8336 12.7036 24.7663C12.3944 24.7038 12.0853 24.6425 11.7737 24.593C11.4439 24.5399 11.1129 24.475 10.7795 24.462C9.9854 24.4314 9.19006 24.409 8.39594 24.4208C7.85036 24.429 7.3072 24.4998 6.71676 24.547C6.71676 24.4444 6.71676 24.3653 6.71676 24.2863C6.69736 19.7194 6.6719 15.1537 6.66705 10.5868C6.66705 10.2306 6.78587 9.86728 6.89498 9.51934C7.01259 9.14191 7.15565 8.76802 7.33751 8.41653C7.64425 7.82208 8.09405 7.32788 8.57659 6.85963C9.06761 6.38313 9.63744 6.01041 10.2388 5.69785C10.7359 5.43955 11.2815 5.26853 11.8137 5.07863C12.1701 4.95125 12.5339 4.82151 12.9061 4.76018C13.4456 4.67172 13.996 4.64459 14.5416 4.59033C14.5695 4.61628 14.5962 4.64341 14.6216 4.67054ZM11.9119 7.33142C11.7555 7.40219 11.6246 7.45762 11.4973 7.52132C10.8899 7.81972 10.3346 8.18654 9.88962 8.69607C9.33919 9.32473 8.91364 10.03 8.91242 10.8675C8.90636 14.5616 8.93425 18.2569 8.95001 21.9521C8.95001 22.0335 8.95001 22.1149 8.95001 22.1609C9.95994 22.2411 10.9299 22.3178 11.9131 22.3956C11.9119 17.3829 11.9119 12.3807 11.9119 7.33142Z" fill="white"/>
<path d="M15.4193 13.6772C15.4193 13.4177 15.4193 13.1995 15.4193 12.9813C15.4193 11.2817 15.4108 9.58208 15.423 7.88246C15.4266 7.37293 15.4484 6.8575 15.5345 6.35623C15.6073 5.9328 15.7709 5.52234 15.9225 5.11542C16.0583 4.74979 16.2207 4.39123 16.3929 4.03857C16.6414 3.52786 16.9845 3.0773 17.3543 2.64207C17.8781 2.02403 18.4988 1.5145 19.1863 1.09107C19.5997 0.837484 20.0653 0.664102 20.509 0.460054C20.6508 0.394003 20.7988 0.339748 20.9442 0.283133C21.3359 0.130981 21.725 -0.00583728 22.1627 0.00123954C23.1096 0.0177521 24.0577 -0.0140936 25.0046 0.0165727C25.3404 0.0271879 25.6811 0.136879 26.0048 0.24421C26.4049 0.377491 26.7965 0.540257 27.1772 0.720716C27.4403 0.844561 27.6937 0.999071 27.9253 1.17363C28.3848 1.5204 28.8527 1.86244 29.2686 2.25403C29.9621 2.90745 30.5028 3.68355 30.8811 4.54574C31.1005 5.04583 31.2448 5.58367 31.3673 6.11561C31.4655 6.54258 31.5128 6.98606 31.5249 7.42365C31.5588 8.62906 31.5637 9.83448 31.5782 11.0411C31.5782 11.0564 31.5685 11.0729 31.5528 11.1177C26.2 11.967 20.8339 12.8185 15.4193 13.6772ZM29.3862 9.27306C29.3353 8.58425 29.2334 7.91195 29.2492 7.24319C29.2698 6.39397 28.9655 5.64854 28.5618 4.94794C27.9071 3.81211 26.9432 2.98176 25.6956 2.47577C25.2034 2.27644 24.7112 2.13962 24.1668 2.1809C23.7437 2.21275 23.3157 2.18916 22.8902 2.1868C22.4149 2.18444 21.9627 2.20449 21.502 2.40618C20.8667 2.68571 20.2568 2.97468 19.7209 3.42052C18.7437 4.23318 18.1363 5.26404 17.8259 6.45176C17.6938 6.95776 17.6805 7.50149 17.6683 8.02871C17.6453 8.96639 17.6623 9.90525 17.6623 10.8441C17.6623 10.9338 17.6623 11.0222 17.6623 11.1378C21.5711 10.5174 25.441 9.90053 29.3862 9.27306Z" fill="white"/>
<path d="M18.2455 65.0287C18.471 64.4154 18.6977 63.7974 18.9366 63.1475C19.0517 63.7856 19.1608 64.3942 19.2736 65.0287C18.945 65.0287 18.6165 65.0287 18.2455 65.0287Z" fill="white"/>
<path d="M34.9996 63.1445C35.1148 63.7885 35.2239 64.4018 35.3379 65.0364C34.9996 65.0364 34.6687 65.0364 34.3062 65.0364C34.5353 64.4136 34.7632 63.7909 34.9996 63.1445Z" fill="white"/>
</svg>
