<svg width="16" height="16" viewBox="0 0 16 16" fill="none" xmlns="http://www.w3.org/2000/svg">
<path fill-rule="evenodd" clip-rule="evenodd" d="M7.99997 0.615234C3.93843 0.615234 0.615356 3.93831 0.615356 7.99985C0.615356 12.0614 3.93843 15.3845 7.99997 15.3845C12.0615 15.3845 15.3846 12.0614 15.3846 7.99985C15.3846 3.93831 12.0615 0.615234 7.99997 0.615234ZM11.6615 8.52293C11.6307 8.73831 11.4461 8.92293 11.2 8.92293H4.79997C4.55382 8.92293 4.3692 8.76908 4.33843 8.52293C4.30766 8.1537 4.30766 7.81523 4.33843 7.47677C4.3692 7.26139 4.55382 7.07677 4.79997 7.07677H11.2C11.4461 7.07677 11.6307 7.26139 11.6615 7.47677C11.6923 7.846 11.6923 8.18446 11.6615 8.52293Z" fill="#2ECAD3"/>
</svg>
