<svg width="16" height="16" viewBox="0 0 16 16" fill="none" xmlns="http://www.w3.org/2000/svg">
<path fill-rule="evenodd" clip-rule="evenodd" d="M13.223 2.76139C10.3307 -0.10015 5.65382 -0.10015 2.76151 2.76139C-0.100028 5.6537 -0.100028 10.3306 2.76151 13.2229C5.65382 16.1152 10.3307 16.1152 13.1923 13.2229C16.0846 10.3306 16.0846 5.6537 13.223 2.76139ZM12.9154 8.60754C12.9154 8.79216 12.7923 8.91524 12.6077 8.91524H9.22305C9.0692 8.91524 8.91536 9.06908 8.91536 9.22293V12.6075C8.91536 12.7614 8.76151 12.9152 8.60766 12.9152H7.3769C7.19228 12.9152 7.0692 12.7922 7.0692 12.6075V9.22293C7.0692 9.03831 6.94613 8.91524 6.76151 8.91524H3.37689C3.19228 8.91524 3.0692 8.79216 3.0692 8.60754V7.37677C3.0692 7.22293 3.22305 7.06908 3.37689 7.06908H6.76151C6.94613 7.06908 7.0692 6.946 7.0692 6.76139V3.37677C7.0692 3.22293 7.22305 3.06908 7.3769 3.06908H8.60766C8.76151 3.06908 8.91536 3.19216 8.91536 3.37677V6.76139C8.91536 6.946 9.03843 7.06908 9.22305 7.06908H12.6077C12.7615 7.06908 12.9154 7.22293 12.9154 7.37677V8.60754Z" fill="#2ECAD3"/>
</svg>
