<svg width="20" height="20" viewBox="0 0 20 20" fill="none" xmlns="http://www.w3.org/2000/svg">
<path fill-rule="evenodd" clip-rule="evenodd" d="M2.44217 4.88433C3.79094 4.88433 4.88433 3.79094 4.88433 2.44217C4.88433 1.09339 3.79094 0 2.44217 0C1.09339 0 0 1.09339 0 2.44217C0 3.79094 1.09339 4.88433 2.44217 4.88433ZM2.44217 12.4422C3.79094 12.4422 4.88433 11.3488 4.88433 10C4.88433 8.65123 3.79094 7.55783 2.44217 7.55783C1.09339 7.55783 0 8.65123 0 10C0 11.3488 1.09339 12.4422 2.44217 12.4422ZM4.88433 17.5578C4.88433 18.9066 3.79094 20 2.44217 20C1.09339 20 0 18.9066 0 17.5578C0 16.2091 1.09339 15.1157 2.44217 15.1157C3.79094 15.1157 4.88433 16.2091 4.88433 17.5578ZM10 4.88433C11.3488 4.88433 12.4422 3.79094 12.4422 2.44217C12.4422 1.09339 11.3488 0 10 0C8.65123 0 7.55783 1.09339 7.55783 2.44217C7.55783 3.79094 8.65123 4.88433 10 4.88433ZM12.4422 10C12.4422 11.3488 11.3488 12.4422 10 12.4422C8.65123 12.4422 7.55783 11.3488 7.55783 10C7.55783 8.65123 8.65123 7.55783 10 7.55783C11.3488 7.55783 12.4422 8.65123 12.4422 10ZM10 20C11.3488 20 12.4422 18.9066 12.4422 17.5578C12.4422 16.2091 11.3488 15.1157 10 15.1157C8.65123 15.1157 7.55783 16.2091 7.55783 17.5578C7.55783 18.9066 8.65123 20 10 20ZM20 2.44217C20 3.79094 18.9066 4.88433 17.5578 4.88433C16.2091 4.88433 15.1157 3.79094 15.1157 2.44217C15.1157 1.09339 16.2091 0 17.5578 0C18.9066 0 20 1.09339 20 2.44217ZM17.5578 12.4422C18.9066 12.4422 20 11.3488 20 10C20 8.65123 18.9066 7.55783 17.5578 7.55783C16.2091 7.55783 15.1157 8.65123 15.1157 10C15.1157 11.3488 16.2091 12.4422 17.5578 12.4422ZM20 17.5578C20 18.9066 18.9066 20 17.5578 20C16.2091 20 15.1157 18.9066 15.1157 17.5578C15.1157 16.2091 16.2091 15.1157 17.5578 15.1157C18.9066 15.1157 20 16.2091 20 17.5578Z" fill="black"/>
</svg>
