<?xml version="1.0"?>
<svg xmlns="http://www.w3.org/2000/svg" xmlns:xlink="http://www.w3.org/1999/xlink" xmlns:svgjs="http://svgjs.com/svgjs" version="1.1" width="512" height="512" x="0" y="0" viewBox="0 0 512 512" style="enable-background:new 0 0 512 512" xml:space="preserve" class=""><g>
<g xmlns="http://www.w3.org/2000/svg">
	<g>
		<g>
			<path d="M341.333,298.667H384v-128C384,147.093,364.907,128,341.333,128h-128v42.667h128V298.667z" fill="#ffffff" data-original="#000000" style="" class=""/>
			<path d="M159.253,458.347C89.6,425.28,39.573,357.547,32,277.333H0C10.88,408.747,120.747,512,254.933,512     c4.8,0,9.387-0.427,14.08-0.747l-81.28-81.387L159.253,458.347z" fill="#ffffff" data-original="#000000" style="" class=""/>
			<path d="M257.067,0c-4.8,0-9.387,0.427-14.08,0.747l81.28,81.387L352.64,53.76C422.4,86.72,472.427,154.453,480,234.667h32     C501.12,103.253,391.253,0,257.067,0z" fill="#ffffff" data-original="#000000" style="" class=""/>
			<path d="M170.667,85.333H128V128H85.333v42.667H128v170.667C128,364.907,147.093,384,170.667,384h170.667v42.667H384V384h42.667     v-42.667h-256V85.333z" fill="#ffffff" data-original="#000000" style="" class=""/>
		</g>
	</g>
</g>
<g xmlns="http://www.w3.org/2000/svg">
</g>
<g xmlns="http://www.w3.org/2000/svg">
</g>
<g xmlns="http://www.w3.org/2000/svg">
</g>
<g xmlns="http://www.w3.org/2000/svg">
</g>
<g xmlns="http://www.w3.org/2000/svg">
</g>
<g xmlns="http://www.w3.org/2000/svg">
</g>
<g xmlns="http://www.w3.org/2000/svg">
</g>
<g xmlns="http://www.w3.org/2000/svg">
</g>
<g xmlns="http://www.w3.org/2000/svg">
</g>
<g xmlns="http://www.w3.org/2000/svg">
</g>
<g xmlns="http://www.w3.org/2000/svg">
</g>
<g xmlns="http://www.w3.org/2000/svg">
</g>
<g xmlns="http://www.w3.org/2000/svg">
</g>
<g xmlns="http://www.w3.org/2000/svg">
</g>
<g xmlns="http://www.w3.org/2000/svg">
</g>
</g></svg>
