<svg width="28" height="17" viewBox="0 0 28 17" fill="none" xmlns="http://www.w3.org/2000/svg">
<path d="M24.5 10.0594C24.2584 10.0594 24.0625 10.2553 24.0625 10.4969V13.5625H23.3664C23.1949 12.0451 21.8257 10.9541 20.3084 11.1256C19.0273 11.2704 18.0163 12.2814 17.8714 13.5625H8.75V0.875H24.0625V2.25094C24.0625 2.49255 24.2584 2.68844 24.5 2.68844C24.7416 2.68844 24.9375 2.49255 24.9375 2.25094V0.4375C24.9375 0.195891 24.7416 0 24.5 0H8.3125C8.07089 0 7.875 0.195891 7.875 0.4375V0.875H2.86475C1.76646 0.876422 0.876422 1.76641 0.875 2.86475V3.5C0.875 3.74161 1.07089 3.9375 1.3125 3.9375H1.82131L1.4875 7.94719C0.613867 8.17458 0.0030625 8.96197 0 9.86475V13.5625C0 13.8041 0.195891 14 0.4375 14H1.32344C1.44337 15.5645 2.80891 16.7356 4.37341 16.6156C5.77123 16.5085 6.88188 15.3978 6.98906 14C6.993 14 6.99606 14.0022 7 14.0022H7.875C7.875 14.2438 8.07089 14.4397 8.3125 14.4397H17.9112C18.2229 15.9351 19.6879 16.8947 21.1833 16.5831C22.2605 16.3586 23.1021 15.5169 23.3266 14.4397H24.5C24.7416 14.4397 24.9375 14.2438 24.9375 14.0022V10.4969C24.9375 10.2553 24.7416 10.0594 24.5 10.0594ZM4.15625 15.75C3.06895 15.75 2.1875 14.8685 2.1875 13.7812C2.1875 12.694 3.06895 11.8125 4.15625 11.8125C5.24355 11.8125 6.125 12.694 6.125 13.7812C6.1238 14.8681 5.24305 15.7488 4.15625 15.75ZM7.875 13.125H7C6.97435 13.1277 6.94898 13.1328 6.92431 13.1403C6.57245 11.6116 5.04798 10.6577 3.51936 11.0095C2.46531 11.2521 1.64057 12.0723 1.39213 13.125H0.875V9.86475C0.875711 9.24941 1.37441 8.75071 1.98975 8.75H7.875V13.125ZM7.875 7.875H2.37125L2.69938 3.9375H7.875V7.875ZM7.875 3.0625H1.75V2.86475C1.75071 2.24941 2.24941 1.75071 2.86475 1.75H7.875V3.0625ZM22.5069 13.9825C22.4507 14.9834 21.6218 15.7657 20.6194 15.764H20.6189C19.701 15.762 18.9172 15.1009 18.7604 14.1964C18.8371 14.0625 18.8284 13.896 18.7381 13.7708C18.7966 12.73 19.6877 11.9337 20.7284 11.9922C21.7691 12.0507 22.5654 12.9417 22.5069 13.9825Z" fill="#E7018E"/>
<path d="M24.0625 3.5H17.9375C17.6959 3.5 17.5 3.69589 17.5 3.9375C17.5 4.17911 17.6959 4.375 17.9375 4.375H24.0625C24.3041 4.375 24.5 4.17911 24.5 3.9375C24.5 3.69589 24.3041 3.5 24.0625 3.5Z" fill="#E7018E"/>
<path d="M24.9375 8.3125H15.3125C15.0709 8.3125 14.875 8.50839 14.875 8.75C14.875 8.99161 15.0709 9.1875 15.3125 9.1875H24.9375C25.1791 9.1875 25.375 8.99161 25.375 8.75C25.375 8.50839 25.1791 8.3125 24.9375 8.3125Z" fill="#E7018E"/>
<path d="M24.0625 5.6875H19.25C19.0084 5.6875 18.8125 5.88339 18.8125 6.125C18.8125 6.36661 19.0084 6.5625 19.25 6.5625H24.0625C24.3041 6.5625 24.5 6.36661 24.5 6.125C24.5 5.88339 24.3041 5.6875 24.0625 5.6875Z" fill="#E7018E"/>
<path d="M25.8125 4.375H26.6875C26.9291 4.375 27.125 4.17911 27.125 3.9375C27.125 3.69589 26.9291 3.5 26.6875 3.5H25.8125C25.5709 3.5 25.375 3.69589 25.375 3.9375C25.375 4.17911 25.5709 4.375 25.8125 4.375Z" fill="#E7018E"/>
<path d="M27.125 8.3125H26.25C26.0084 8.3125 25.8125 8.50839 25.8125 8.75C25.8125 8.99161 26.0084 9.1875 26.25 9.1875H27.125C27.3666 9.1875 27.5625 8.99161 27.5625 8.75C27.5625 8.50839 27.3666 8.3125 27.125 8.3125Z" fill="#E7018E"/>
<path d="M27.5625 5.6875H25.8125C25.5709 5.6875 25.375 5.88339 25.375 6.125C25.375 6.36661 25.5709 6.5625 25.8125 6.5625H27.5625C27.8041 6.5625 28 6.36661 28 6.125C28 5.88339 27.8041 5.6875 27.5625 5.6875Z" fill="#E7018E"/>
</svg>
